<svg width="86" height="39" viewBox="0 0 86 39" fill="none" xmlns="http://www.w3.org/2000/svg">
<path d="M5.59178 39C4.47826 39 3.42527 38.8063 2.43279 38.419C1.46451 38.0317 0.653584 37.5234 0 36.894L1.67027 34.2434C2.15441 34.7517 2.73537 35.1753 3.41316 35.5142C4.09095 35.8531 4.78085 36.0226 5.48285 36.0226C6.64477 36.0226 7.56463 35.611 8.24242 34.788C8.92021 33.9408 9.25911 32.5247 9.25911 30.5397L8.78392 0H12.2334L12.7086 30.1766C12.7086 33.2509 12.055 35.49 10.7478 36.894C9.44066 38.298 7.72198 39 5.59178 39Z" fill="#E90E0E"/>
<path d="M26.6767 39C25.5874 39 24.5586 38.77 23.5903 38.3101C22.622 37.8502 21.8353 37.1119 21.2301 36.0952C20.625 35.0543 20.3224 33.6745 20.3224 31.9558V19.683H23.5903V31.5201C23.5903 32.9967 23.905 34.1344 24.5344 34.9333C25.1637 35.7079 26.0836 36.0952 27.2939 36.0952C28.2864 36.0952 29.2426 35.9015 30.1625 35.5142C31.1065 35.1027 31.9417 34.558 32.6679 33.8803V19.683H35.9358V33.6624C35.9358 34.7033 36.1536 35.3932 36.5894 35.7321C37.0493 36.0468 37.5455 36.2041 38.0781 36.2041L37.3882 38.7458C35.137 38.7458 33.7451 37.8502 33.2125 36.0589C32.3653 36.9303 31.3849 37.6444 30.2714 38.2012C29.1579 38.7337 27.9596 39 26.6767 39Z" fill="#E90E0E"/>
<path d="M51.0233 39C49.2077 39 47.7674 38.4069 46.7023 37.2208C45.6614 36.0105 45.141 34.2918 45.141 32.0647V23.2051H41.8731V20.3729H45.2136L45.9035 14.418H48.4089V20.3729H53.6376V23.2051H48.4089V32.3189C48.4089 33.7229 48.6994 34.7033 49.2804 35.26C49.8855 35.8168 50.5996 36.0952 51.4227 36.0952C52.0278 36.0952 52.5967 35.9984 53.1292 35.8047C53.686 35.611 54.1944 35.3811 54.6543 35.1148L55.562 37.7291C55.0779 38.0196 54.4243 38.298 53.6013 38.5643C52.7782 38.8548 51.9189 39 51.0233 39Z" fill="#E90E0E"/>
<path d="M67.6871 39C64.9759 39 62.8215 38.1407 61.2239 36.422C59.6504 34.6791 58.8637 32.2463 58.8637 29.1236C58.8637 27.2355 59.2147 25.5531 59.9167 24.0765C60.6429 22.5757 61.6475 21.4016 62.9305 20.5544C64.2134 19.683 65.7021 19.2472 67.3966 19.2472C69.2121 19.2472 70.7129 19.6466 71.8991 20.4455C73.1094 21.2201 74.0172 22.2731 74.6223 23.6045C75.2275 24.9358 75.5301 26.4003 75.5301 27.998C75.5301 28.8452 75.4938 29.6683 75.4212 30.4671H62.2043C62.4221 32.2342 63.0394 33.614 64.0561 34.6065C65.0728 35.5989 66.4162 36.0952 68.0865 36.0952C69.1758 36.0952 70.1562 35.9863 71.0276 35.7684C71.8991 35.5263 72.7342 35.2237 73.533 34.8606L74.2956 37.6565C73.4241 38.0438 72.4437 38.3585 71.3544 38.6006C70.2651 38.8669 69.0427 39 67.6871 39ZM62.1679 27.8164H72.5164C72.5164 25.9767 72.0564 24.5606 71.1366 23.5682C70.2167 22.5757 68.9458 22.0794 67.324 22.0794C65.92 22.0794 64.7581 22.5757 63.8382 23.5682C62.9184 24.5364 62.3616 25.9525 62.1679 27.8164Z" fill="#E90E0E"/>
<path d="M81.8824 38.5643V19.683H85.1503V38.5643H81.8824ZM83.5164 16.4513C82.887 16.4513 82.3423 16.2214 81.8824 15.7615C81.4467 15.3015 81.2288 14.769 81.2288 14.1638C81.2288 13.4618 81.4346 12.905 81.8461 12.4935C82.2576 12.082 82.8144 11.8763 83.5164 11.8763C84.1457 11.8763 84.6783 12.1062 85.114 12.5662C85.574 13.0019 85.8039 13.5344 85.8039 14.1638C85.8039 14.8416 85.5982 15.3983 85.1866 15.8341C84.7751 16.2456 84.2184 16.4513 83.5164 16.4513Z" fill="#E90E0E"/>
</svg>
