<svg width="1247" height="219" viewBox="0 0 1247 219" fill="none" xmlns="http://www.w3.org/2000/svg">
<rect width="1247" height="218.085" rx="5" fill="#F8E3F2"/>
<g clip-path="url(#clip0_18_159)">
<path d="M805.778 132.022C811.423 129.766 814.937 128.47 824.25 126.199C819.192 126.533 808.007 127.3 800.298 128.805L805.778 132.024M788.227 139.51H795.609C797.07 137.295 798.524 136.217 800.218 135.017C798.932 134.52 797.638 134.041 796.338 133.58C791.629 135.659 789.008 138.45 788.233 139.51M789.687 131.456C783.105 133.808 779.448 136.362 776.977 139.51H785.127C785.921 138.405 788.945 135.218 794.626 133.002C792.991 132.45 791.345 131.935 789.687 131.456ZM793.064 126.502H775.041C793.212 129.783 801.969 134.006 816.049 139.977C814.845 139.077 795.44 127.648 793.066 126.502" fill="#111111"/>
</g>
<g clip-path="url(#clip1_18_159)">
<path d="M643.872 114.651C643.017 113.558 641.523 114.434 640.865 114.815C636.181 117.575 635.49 122.434 633.858 125.225C632.575 127.46 630.471 129.1 628.568 129.227C627.162 129.327 625.636 129.055 624.123 128.397C620.418 126.795 618.423 124.722 617.937 124.357C616.939 123.599 609.264 116.125 603.011 115.82C603.011 115.82 602.248 114.282 602.057 114.255C601.602 114.204 601.134 115.18 600.794 115.282C600.486 115.391 599.947 114.233 599.636 114.284C599.322 114.325 599.016 115.485 598.405 116.082C597.954 116.519 597.409 116.492 597.099 117.031C596.993 117.228 597.03 117.575 596.909 117.893C596.648 118.549 595.779 118.618 595.771 119.322C595.771 120.103 596.503 120.253 597.142 120.798C597.651 121.233 597.686 121.54 598.278 121.743C598.807 121.924 599.574 121.36 600.255 121.563C600.823 121.729 601.368 121.85 601.489 122.43C601.6 122.955 601.489 123.779 600.792 123.687C600.562 123.656 599.566 123.33 598.336 123.461C596.849 123.619 595.151 124.095 594.985 125.737C594.901 126.654 596.039 127.726 597.148 127.513C597.909 127.367 597.55 126.475 597.967 126.045C598.514 125.491 601.6 127.98 604.47 127.98C605.686 127.98 606.584 127.673 607.478 126.74C607.56 126.68 607.669 126.531 607.796 126.514C607.939 126.551 608.074 126.612 608.196 126.695C610.515 128.534 612.264 132.231 620.765 132.274C621.958 132.288 623.328 132.846 624.447 133.867C625.431 134.755 626.014 136.174 626.573 137.609C627.43 139.768 628.954 141.851 631.273 144.176C631.396 144.316 633.303 145.776 633.446 145.884C633.471 145.905 633.618 146.227 633.555 146.407C633.514 147.822 633.303 151.882 636.354 152.052C637.104 152.093 636.918 151.578 636.918 151.211C636.907 150.512 636.784 149.807 637.149 149.079C637.668 148.099 636.071 147.625 636.106 145.478C636.145 143.871 634.783 144.143 634.088 142.915C633.698 142.212 633.333 141.825 633.37 140.976C633.52 136.096 632.31 132.881 631.72 132.104C631.254 131.501 630.853 131.277 631.295 130.996C633.838 129.325 634.422 127.769 634.422 127.769C635.775 124.61 636.998 121.731 638.677 120.449C639.017 120.203 639.884 119.547 640.424 119.301C641.988 118.559 642.829 118.116 643.27 117.685C644 116.994 644.572 115.526 643.872 114.651Z" fill="#111111"/>
</g>
<g clip-path="url(#clip2_18_159)">
<path d="M464.13 124.476L428.13 139.805C425.144 141.068 422.637 141.702 420.609 141.702C418.312 141.702 416.645 140.898 415.612 139.288C414.962 138.255 414.771 136.945 415.038 135.356C415.304 133.767 416.014 132.075 417.162 130.275C418.12 128.819 419.688 126.906 421.872 124.534C421.131 125.7 420.588 126.98 420.264 128.323C419.69 130.773 420.207 132.571 421.814 133.719C422.579 134.255 423.631 134.523 424.972 134.523C426.042 134.523 427.248 134.351 428.589 134.006L464.13 124.476Z" fill="#111111"/>
</g>
<g clip-path="url(#clip3_18_159)">
<path d="M973.013 124.985C971.82 124.985 970.891 125.951 970.891 127.146L970.938 139.028C970.938 140.221 971.851 141.189 973.048 141.189H973.294C974.49 141.189 975.455 140.221 975.455 139.028L975.408 127.146C975.408 125.951 974.44 124.985 973.245 124.985H973.013ZM979.31 124.999C978.133 124.999 977.178 125.959 977.178 127.14V137.884C977.178 139.493 978.763 141.045 980.337 141.045H988.658C989.841 141.045 990.636 140.184 991.307 139.005L995.637 131.579C995.674 131.497 995.746 131.394 995.828 131.394C995.918 131.394 995.971 131.497 996.017 131.575L998.848 136.118C998.967 136.311 998.988 136.407 998.914 136.58C998.848 136.738 998.69 136.77 998.442 136.77H994.466C993.281 136.77 992.326 137.728 992.326 138.911V139.044C992.326 140.227 993.281 141.045 994.466 141.045H1000.95C1002.53 141.045 1004.31 139.545 1004.31 137.58C1004.31 136.336 1004.07 135.895 1003.03 134.207L998.229 126.387C997.665 125.481 996.896 125.042 995.926 125.042C994.922 125.042 994.073 125.512 993.542 126.387L987.981 135.606C987.602 136.237 987.165 136.496 986.443 136.496H982.306C982.229 136.498 982.152 136.485 982.08 136.457C982.008 136.429 981.942 136.387 981.888 136.332C981.833 136.278 981.79 136.213 981.761 136.141C981.733 136.069 981.719 135.993 981.721 135.915L981.725 127.14C981.725 125.959 980.766 124.999 979.585 124.999H979.31ZM957.264 125.292C956.071 125.292 955.101 126.207 955.101 127.4V127.552C955.101 128.749 956.071 129.715 957.264 129.715H967.383C968.574 129.715 969.546 128.749 969.546 127.552V127.417C969.545 127.135 969.488 126.856 969.379 126.596C969.269 126.336 969.109 126.101 968.908 125.903C968.707 125.706 968.468 125.55 968.207 125.445C967.945 125.34 967.665 125.288 967.383 125.292H957.264ZM957.648 131.072C956.163 131.072 955.103 132.237 955.103 133.617L955.101 139.054C955.101 140.238 956.059 141.191 957.238 141.191H957.513C957.793 141.191 958.071 141.137 958.331 141.029C958.59 140.922 958.826 140.765 959.024 140.566C959.223 140.368 959.38 140.132 959.488 139.873C959.595 139.613 959.65 139.335 959.649 139.054V136.065C959.649 135.743 959.907 135.483 960.229 135.483H966.337C967.516 135.483 968.476 134.529 968.476 133.346V133.211C968.476 132.03 967.516 131.072 966.337 131.072H957.648Z" fill="#111111"/>
</g>
<g clip-path="url(#clip4_18_159)">
<path d="M259.334 145.292C259.334 143.971 260.394 142.913 261.717 142.913C263.037 142.913 264.095 143.971 264.095 145.292C264.096 145.604 264.036 145.914 263.916 146.203C263.797 146.493 263.622 146.755 263.401 146.977C263.18 147.198 262.917 147.373 262.628 147.493C262.339 147.612 262.029 147.673 261.717 147.672C261.404 147.674 261.094 147.613 260.804 147.494C260.515 147.375 260.252 147.2 260.03 146.979C259.809 146.758 259.634 146.495 259.514 146.206C259.395 145.917 259.333 145.605 259.334 145.292ZM269.02 145.294C269.02 143.971 270.08 142.911 271.401 142.911C272.721 142.911 273.781 143.971 273.781 145.292C273.781 146.612 272.721 147.672 271.403 147.672C271.09 147.674 270.78 147.613 270.49 147.494C270.201 147.375 269.938 147.2 269.716 146.979C269.495 146.758 269.319 146.495 269.2 146.206C269.08 145.917 269.019 145.607 269.02 145.294ZM246.569 145.294C246.569 143.971 247.629 142.911 248.949 142.911C250.27 142.911 251.328 143.971 251.328 145.292C251.328 146.612 250.27 147.672 248.949 147.672C248.636 147.673 248.326 147.612 248.037 147.493C247.748 147.374 247.485 147.199 247.264 146.978C247.043 146.757 246.868 146.494 246.748 146.205C246.629 145.916 246.568 145.606 246.569 145.294ZM236.883 145.294C236.883 143.971 237.943 142.911 239.263 142.911C240.584 142.911 241.644 143.971 241.644 145.292C241.645 145.605 241.584 145.915 241.465 146.204C241.345 146.493 241.17 146.756 240.949 146.977C240.728 147.199 240.465 147.374 240.175 147.493C239.886 147.612 239.576 147.673 239.263 147.672C238.951 147.673 238.641 147.612 238.352 147.493C238.063 147.374 237.801 147.198 237.579 146.977C237.358 146.756 237.183 146.494 237.064 146.205C236.945 145.916 236.882 145.606 236.883 145.294ZM256.466 141.086H254.395V149.417H256.466V141.086ZM241.627 149.417H243.698V141.086H241.627V141.755C240.905 141.252 240.046 140.985 239.167 140.988C236.784 140.988 234.861 142.911 234.861 145.294C234.861 147.689 236.784 149.597 239.167 149.597C240.079 149.597 240.926 149.321 241.627 148.831V149.417ZM273.765 149.417H275.836V141.086H273.765V141.755C273.043 141.252 272.184 140.985 271.304 140.988C268.922 140.988 266.999 142.911 266.999 145.294C266.997 145.86 267.107 146.42 267.322 146.943C267.538 147.467 267.855 147.942 268.256 148.342C268.656 148.742 269.131 149.059 269.654 149.274C270.178 149.49 270.738 149.6 271.304 149.597C272.217 149.597 273.064 149.321 273.765 148.831V149.417ZM276.602 146.711C276.668 148.392 278.103 149.581 280.498 149.581C282.456 149.581 284.07 148.732 284.07 146.858C284.07 145.554 283.336 144.787 281.64 144.459L280.32 144.201C279.471 144.037 278.885 143.873 278.885 143.368C278.885 142.815 279.455 142.569 280.172 142.569C281.218 142.569 281.64 143.092 281.673 143.711H283.76C283.646 142.081 282.341 140.988 280.238 140.988C278.071 140.988 276.781 142.177 276.781 143.727C276.781 145.618 278.315 145.927 279.635 146.173L280.728 146.368C281.511 146.516 281.853 146.743 281.853 147.201C281.853 147.609 281.462 148.015 280.531 148.015C279.178 148.015 278.739 147.313 278.723 146.711H276.602ZM251.313 138.249V141.755C250.591 141.252 249.732 140.985 248.853 140.988C246.47 140.988 244.547 142.911 244.547 145.294C244.547 147.689 246.47 149.597 248.853 149.597C249.763 149.597 250.612 149.321 251.313 148.831V149.417H253.384V138.249H251.313ZM264.079 138.249V141.755C263.357 141.252 262.498 140.985 261.618 140.988C259.238 140.988 257.313 142.911 257.313 145.294C257.311 145.86 257.421 146.42 257.636 146.943C257.852 147.467 258.169 147.942 258.57 148.342C258.97 148.742 259.445 149.059 259.969 149.274C260.492 149.49 261.052 149.6 261.618 149.597C262.531 149.597 263.378 149.321 264.079 148.831V149.417H266.15V138.249H264.079ZM240.241 135.788L241.644 138.249H251.313L247.481 131.628L240.243 135.786L240.241 135.788ZM256.466 140.32V138.249H264.079L255.959 124.193L248.703 128.351L254.395 138.249V140.32H256.466ZM267.163 138.249H276.846L264.325 116.578L257.085 120.753L267.163 138.249Z" fill="#111111"/>
</g>
<path d="M475.987 59.6045C475.247 59.6045 474.65 59.4374 474.197 59.1033C473.767 58.7691 473.553 58.3753 473.553 57.9218V35.1514C473.553 34.5785 473.803 34.1489 474.304 33.8625C474.829 33.5761 475.39 33.4329 475.987 33.4329H483.327C484.52 33.4329 485.666 33.6119 486.764 33.9699C487.862 34.3279 488.757 34.9724 489.449 35.9032C490.141 36.8102 490.487 38.1111 490.487 39.8057C490.487 41.2617 490.213 42.467 489.664 43.4218C489.139 44.3526 488.399 45.0209 487.444 45.4267C488.184 45.6893 488.828 46.0473 489.377 46.5008C489.926 46.9304 490.356 47.5152 490.666 48.2551C490.976 48.995 491.132 49.9617 491.132 51.1551V51.907C491.132 53.7926 490.809 55.2963 490.165 56.4181C489.544 57.5399 488.685 58.3514 487.587 58.8526C486.513 59.3539 485.296 59.6045 483.935 59.6045H475.987ZM479.102 54.7354H482.682C483.589 54.7354 484.293 54.4728 484.794 53.9477C485.296 53.4226 485.546 52.5872 485.546 51.4415V50.8687C485.546 49.6514 485.296 48.8041 484.794 48.3267C484.293 47.8255 483.589 47.5749 482.682 47.5749H479.102V54.7354ZM479.102 43.2786H482.861C483.553 43.2786 484.067 43.016 484.401 42.4909C484.735 41.9658 484.902 41.4049 484.902 40.8082C484.902 40.3786 484.818 39.9728 484.651 39.5909C484.508 39.209 484.281 38.8987 483.971 38.66C483.685 38.4213 483.315 38.302 482.861 38.302H479.102V43.2786ZM511.548 59.8193C511.19 59.8193 510.844 59.7477 510.51 59.6045C510.2 59.4374 509.949 59.1629 509.758 58.781L504.853 49.2576H502.49V57.886C502.49 58.4588 502.192 58.8884 501.595 59.1749C501.023 59.4613 500.39 59.6045 499.698 59.6045C499.006 59.6045 498.361 59.4613 497.765 59.1749C497.192 58.8884 496.905 58.4588 496.905 57.886V35.1156C496.905 34.6621 497.06 34.2683 497.371 33.9341C497.681 33.5999 498.099 33.4329 498.624 33.4329H506.035C507.682 33.4329 509.162 33.6716 510.474 34.1489C511.811 34.6024 512.873 35.3901 513.661 36.5119C514.448 37.6098 514.842 39.1374 514.842 41.0946C514.842 42.4312 514.651 43.5888 514.269 44.5674C513.911 45.5222 513.398 46.3098 512.73 46.9304C512.086 47.551 511.346 48.0284 510.51 48.3625L514.878 56.2749C514.95 56.3703 514.997 56.4777 515.021 56.5971C515.045 56.7164 515.057 56.8238 515.057 56.9193C515.057 57.3728 514.878 57.8263 514.52 58.2798C514.162 58.7333 513.709 59.1033 513.16 59.3897C512.634 59.6761 512.097 59.8193 511.548 59.8193ZM502.49 44.9613H506.035C507.037 44.9613 507.825 44.7226 508.398 44.2452C508.971 43.744 509.257 42.8728 509.257 41.6316C509.257 40.3666 508.971 39.4954 508.398 39.0181C507.825 38.5407 507.037 38.302 506.035 38.302H502.49V44.9613ZM522.468 59.6045C521.966 59.6045 521.429 59.509 520.857 59.3181C520.308 59.1033 519.842 58.8288 519.46 58.4946C519.078 58.1366 518.887 57.7428 518.887 57.3131C518.887 57.2415 518.911 57.1103 518.959 56.9193L525.618 35.0798C525.809 34.4592 526.263 33.9938 526.979 33.6835C527.695 33.3732 528.459 33.2181 529.27 33.2181C530.106 33.2181 530.869 33.3732 531.561 33.6835C532.278 33.9938 532.731 34.4592 532.922 35.0798L539.617 56.9193C539.665 57.1103 539.689 57.2415 539.689 57.3131C539.689 57.7428 539.498 58.1366 539.116 58.4946C538.734 58.8288 538.268 59.1033 537.72 59.3181C537.171 59.509 536.634 59.6045 536.108 59.6045C535.655 59.6045 535.261 59.5329 534.927 59.3897C534.617 59.2226 534.402 58.9481 534.282 58.5662L533.065 54.0909H525.511L524.294 58.5662C524.198 58.9481 523.983 59.2226 523.649 59.3897C523.315 59.5329 522.921 59.6045 522.468 59.6045ZM526.657 49.7946H531.884L529.27 40.1995L526.657 49.7946ZM547.417 59.6045C546.725 59.6045 546.081 59.4613 545.484 59.1749C544.911 58.8884 544.625 58.4588 544.625 57.886V35.1514C544.625 34.5547 544.911 34.125 545.484 33.8625C546.081 33.5761 546.725 33.4329 547.417 33.4329C548.086 33.4329 548.635 33.4925 549.064 33.6119C549.518 33.7074 549.923 33.946 550.281 34.3279C550.663 34.7098 551.081 35.3423 551.535 36.2255L557.335 47.2884V35.1156C557.335 34.5189 557.621 34.0892 558.194 33.8267C558.791 33.5641 559.435 33.4329 560.127 33.4329C560.819 33.4329 561.452 33.5641 562.025 33.8267C562.621 34.0892 562.92 34.5189 562.92 35.1156V57.886C562.92 58.4588 562.621 58.8884 562.025 59.1749C561.452 59.4613 560.819 59.6045 560.127 59.6045C559.483 59.6045 558.886 59.509 558.337 59.3181C557.788 59.1271 557.346 58.7214 557.012 58.1008L550.21 45.7131V57.886C550.21 58.4588 549.911 58.8884 549.315 59.1749C548.742 59.4613 548.109 59.6045 547.417 59.6045ZM572.09 59.6045C571.35 59.6045 570.754 59.4374 570.3 59.1033C569.87 58.7691 569.656 58.3753 569.656 57.9218V35.1156C569.656 34.6621 569.87 34.2683 570.3 33.9341C570.754 33.5999 571.35 33.4329 572.09 33.4329H578.427C580.074 33.4329 581.566 33.7074 582.903 34.2563C584.239 34.8053 585.289 35.7004 586.053 36.9415C586.841 38.1827 587.235 39.8296 587.235 41.8823V51.1551C587.235 53.2078 586.841 54.8547 586.053 56.0958C585.289 57.337 584.239 58.2321 582.903 58.781C581.566 59.33 580.074 59.6045 578.427 59.6045H572.09ZM575.241 54.7354H578.427C579.43 54.7354 580.217 54.4489 580.79 53.8761C581.363 53.2794 581.649 52.3724 581.649 51.1551V41.8823C581.649 40.665 581.363 39.7699 580.79 39.1971C580.217 38.6004 579.43 38.302 578.427 38.302H575.241V54.7354ZM601.013 59.9625C599.462 59.9625 598.029 59.7358 596.717 59.2823C595.404 58.8288 594.354 58.2559 593.566 57.5637C592.778 56.8477 592.385 56.0958 592.385 55.3082C592.385 54.9024 592.492 54.4728 592.707 54.0193C592.922 53.5419 593.208 53.1362 593.566 52.802C593.948 52.4679 594.366 52.3008 594.819 52.3008C595.249 52.3008 595.643 52.4321 596.001 52.6946C596.383 52.9572 596.788 53.2675 597.218 53.6255C597.671 53.9835 598.185 54.2938 598.757 54.5563C599.354 54.8189 600.07 54.9502 600.906 54.9502C601.455 54.9502 601.992 54.8786 602.517 54.7354C603.066 54.5683 603.507 54.3177 603.841 53.9835C604.199 53.6255 604.378 53.16 604.378 52.5872C604.378 51.9666 604.176 51.4415 603.77 51.0119C603.364 50.5584 602.815 50.1526 602.123 49.7946C601.455 49.4366 600.715 49.0786 599.903 48.7205C599.115 48.3386 598.316 47.9329 597.504 47.5032C596.693 47.0498 595.941 46.5246 595.249 45.9279C594.581 45.3074 594.043 44.5674 593.638 43.7082C593.232 42.8489 593.029 41.8226 593.029 40.6292C593.029 39.2925 593.292 38.1588 593.817 37.2279C594.342 36.2732 595.046 35.5094 595.929 34.9366C596.812 34.3399 597.791 33.9102 598.865 33.6477C599.963 33.3613 601.073 33.2181 602.195 33.2181C602.672 33.2181 603.304 33.2539 604.092 33.3255C604.88 33.3971 605.667 33.5403 606.455 33.7551C607.267 33.9699 607.947 34.2921 608.496 34.7218C609.045 35.1275 609.319 35.6765 609.319 36.3687C609.319 36.679 609.236 37.0728 609.069 37.5502C608.925 38.0037 608.687 38.4094 608.353 38.7674C608.042 39.1255 607.625 39.3045 607.099 39.3045C606.67 39.3045 606.264 39.1971 605.882 38.9823C605.524 38.7436 605.059 38.5168 604.486 38.302C603.937 38.0633 603.173 37.944 602.195 37.944C601.359 37.944 600.667 38.0514 600.118 38.2662C599.593 38.4572 599.211 38.7197 598.972 39.0539C598.734 39.3641 598.614 39.7102 598.614 40.0921C598.614 40.5934 598.817 41.0349 599.223 41.4168C599.629 41.7748 600.166 42.1209 600.834 42.4551C601.526 42.7654 602.266 43.0995 603.054 43.4576C603.865 43.7917 604.677 44.1975 605.488 44.6749C606.3 45.1283 607.04 45.6773 607.708 46.3218C608.4 46.9662 608.949 47.7539 609.355 48.6847C609.761 49.6156 609.964 50.7255 609.964 52.0144C609.964 53.7329 609.57 55.1889 608.782 56.3823C608.018 57.5518 606.968 58.4469 605.632 59.0675C604.295 59.6642 602.755 59.9625 601.013 59.9625ZM634.682 59.8193C633.87 59.8193 633.094 59.6642 632.354 59.3539C631.638 59.0436 631.185 58.5782 630.994 57.9576L623.869 36.1181C623.822 35.9748 623.798 35.8197 623.798 35.6526C623.798 35.2469 623.989 34.8769 624.371 34.5427C624.752 34.2086 625.218 33.946 625.767 33.7551C626.34 33.5403 626.889 33.4329 627.414 33.4329C627.843 33.4329 628.225 33.5164 628.559 33.6835C628.894 33.8267 629.108 34.0892 629.204 34.4711L634.646 52.8378L637.474 40.7366C637.594 40.2592 637.916 39.9012 638.441 39.6625C638.99 39.4 639.563 39.2687 640.159 39.2687C640.78 39.2687 641.353 39.4 641.878 39.6625C642.427 39.9012 642.749 40.2592 642.845 40.7366L645.673 52.8378L651.115 34.4711C651.234 34.0892 651.449 33.8267 651.759 33.6835C652.094 33.5164 652.475 33.4329 652.905 33.4329C653.454 33.4329 654.003 33.5403 654.552 33.7551C655.101 33.946 655.566 34.2086 655.948 34.5427C656.33 34.8769 656.521 35.2469 656.521 35.6526C656.521 35.8197 656.497 35.9748 656.45 36.1181L649.325 57.9576C649.11 58.5782 648.645 59.0436 647.929 59.3539C647.236 59.6642 646.473 59.8193 645.637 59.8193C644.826 59.8193 644.05 59.6642 643.31 59.3539C642.594 59.0436 642.164 58.5782 642.021 57.9576L640.159 49.4724L638.298 57.9576C638.154 58.5782 637.713 59.0436 636.973 59.3539C636.257 59.6642 635.493 59.8193 634.682 59.8193ZM663.858 59.6045C663.261 59.6045 662.7 59.4613 662.175 59.1749C661.674 58.8884 661.423 58.4588 661.423 57.886V35.1514C661.423 34.5785 661.674 34.1489 662.175 33.8625C662.7 33.5761 663.261 33.4329 663.858 33.4329H676.604C677.2 33.4329 677.63 33.6954 677.892 34.2205C678.155 34.7218 678.286 35.2588 678.286 35.8316C678.286 36.4999 678.143 37.0847 677.857 37.586C677.57 38.0633 677.153 38.302 676.604 38.302H667.008V44.3526H672.379C672.928 44.3526 673.346 44.5794 673.632 45.0329C673.918 45.4625 674.062 45.9637 674.062 46.5366C674.062 47.0139 673.93 47.4913 673.668 47.9687C673.405 48.4222 672.976 48.6489 672.379 48.6489H667.008V54.7354H676.604C677.153 54.7354 677.57 54.986 677.857 55.4872C678.143 55.9646 678.286 56.5374 678.286 57.2057C678.286 57.7786 678.155 58.3275 677.892 58.8526C677.63 59.3539 677.2 59.6045 676.604 59.6045H663.858ZM696.054 59.6045C695.457 59.6045 694.896 59.4613 694.371 59.1749C693.87 58.8884 693.619 58.4588 693.619 57.886V35.1156C693.619 34.5189 693.905 34.0892 694.478 33.8267C695.075 33.5641 695.719 33.4329 696.412 33.4329C697.104 33.4329 697.736 33.5641 698.309 33.8267C698.906 34.0892 699.204 34.5189 699.204 35.1156V54.7354H707.367C707.916 54.7354 708.322 54.986 708.584 55.4872C708.847 55.9884 708.978 56.5493 708.978 57.1699C708.978 57.7666 708.847 58.3275 708.584 58.8526C708.322 59.3539 707.916 59.6045 707.367 59.6045H696.054ZM722.17 59.8193C720.523 59.8193 719.032 59.5448 717.695 58.9958C716.382 58.4469 715.332 57.5518 714.544 56.3107C713.781 55.0695 713.399 53.4226 713.399 51.3699V41.8823C713.399 39.8296 713.781 38.1827 714.544 36.9415C715.332 35.7004 716.382 34.8053 717.695 34.2563C719.032 33.7074 720.523 33.4329 722.17 33.4329C723.817 33.4329 725.309 33.7074 726.646 34.2563C727.982 34.8053 729.033 35.7004 729.796 36.9415C730.584 38.1827 730.978 39.8296 730.978 41.8823V51.3699C730.978 53.4226 730.584 55.0695 729.796 56.3107C729.033 57.5518 727.982 58.4469 726.646 58.9958C725.309 59.5448 723.817 59.8193 722.17 59.8193ZM722.17 54.9502C723.173 54.9502 723.96 54.6637 724.533 54.0909C725.106 53.5181 725.393 52.6111 725.393 51.3699V41.8823C725.393 40.6411 725.106 39.7341 724.533 39.1613C723.96 38.5884 723.173 38.302 722.17 38.302C721.168 38.302 720.38 38.5884 719.807 39.1613C719.258 39.7341 718.984 40.6411 718.984 41.8823V51.3699C718.984 52.6111 719.258 53.5181 719.807 54.0909C720.38 54.6637 721.168 54.9502 722.17 54.9502ZM746.051 59.8193C745.239 59.8193 744.476 59.6642 743.76 59.3539C743.043 59.0436 742.59 58.5782 742.399 57.9576L735.704 36.1181C735.656 35.9271 735.632 35.7958 735.632 35.7242C735.632 35.2707 735.823 34.8769 736.205 34.5427C736.587 34.2086 737.053 33.946 737.601 33.7551C738.174 33.5403 738.711 33.4329 739.213 33.4329C739.666 33.4329 740.06 33.5164 740.394 33.6835C740.728 33.8267 740.943 34.0892 741.039 34.4711L746.051 52.8378L751.027 34.4711C751.147 34.0892 751.362 33.8267 751.672 33.6835C752.006 33.5164 752.4 33.4329 752.853 33.4329C753.378 33.4329 753.915 33.5403 754.464 33.7551C755.013 33.946 755.479 34.2086 755.861 34.5427C756.243 34.8769 756.434 35.2707 756.434 35.7242C756.434 35.772 756.422 35.8316 756.398 35.9032C756.398 35.9748 756.386 36.0464 756.362 36.1181L749.703 57.9576C749.512 58.5782 749.058 59.0436 748.342 59.3539C747.65 59.6642 746.886 59.8193 746.051 59.8193ZM763.804 59.6045C763.207 59.6045 762.647 59.4613 762.121 59.1749C761.62 58.8884 761.37 58.4588 761.37 57.886V35.1514C761.37 34.5785 761.62 34.1489 762.121 33.8625C762.647 33.5761 763.207 33.4329 763.804 33.4329H776.55C777.147 33.4329 777.576 33.6954 777.839 34.2205C778.101 34.7218 778.233 35.2588 778.233 35.8316C778.233 36.4999 778.089 37.0847 777.803 37.586C777.517 38.0633 777.099 38.302 776.55 38.302H766.955V44.3526H772.325C772.874 44.3526 773.292 44.5794 773.578 45.0329C773.865 45.4625 774.008 45.9637 774.008 46.5366C774.008 47.0139 773.877 47.4913 773.614 47.9687C773.351 48.4222 772.922 48.6489 772.325 48.6489H766.955V54.7354H776.55C777.099 54.7354 777.517 54.986 777.803 55.4872C778.089 55.9646 778.233 56.5374 778.233 57.2057C778.233 57.7786 778.101 58.3275 777.839 58.8526C777.576 59.3539 777.147 59.6045 776.55 59.6045H763.804Z" fill="#EF002B"/>
<defs>
<clipPath id="clip0_18_159">
<rect width="49.209" height="49.209" fill="white" transform="translate(775.041 108.483)"/>
</clipPath>
<clipPath id="clip1_18_159">
<rect width="49.209" height="49.209" fill="white" transform="translate(594.981 108.483)"/>
</clipPath>
<clipPath id="clip2_18_159">
<rect width="49.209" height="49.209" fill="white" transform="translate(414.921 108.483)"/>
</clipPath>
<clipPath id="clip3_18_159">
<rect width="49.209" height="49.209" fill="white" transform="translate(955.101 108.483)"/>
</clipPath>
<clipPath id="clip4_18_159">
<rect width="49.209" height="49.209" fill="white" transform="translate(234.861 108.484)"/>
</clipPath>
</defs>
</svg>
